<svg width="288" height="103" viewBox="0 0 288 103" fill="none" xmlns="http://www.w3.org/2000/svg">
<rect x="27.5" y="47.6676" width="14" height="38" rx="7" fill="#B4D6A5"/>
<path d="M22.9767 98.0465L22.9815 97.1598L25.9706 94.4806C26.2121 94.2676 26.3758 94.0642 26.4616 93.8704C26.5506 93.6765 26.5951 93.4826 26.5951 93.2887C26.5951 93.044 26.5411 92.8247 26.433 92.6309C26.325 92.4338 26.1756 92.2781 25.9849 92.1637C25.7942 92.0493 25.5749 91.992 25.327 91.992C25.0727 91.992 24.8455 92.0524 24.6453 92.1732C24.4482 92.2908 24.2941 92.4481 24.1829 92.6452C24.0716 92.8422 24.0176 93.0551 24.0208 93.284H23.0006C23.0006 92.839 23.1007 92.4497 23.3009 92.116C23.5043 91.7791 23.7824 91.5169 24.1352 91.3294C24.488 91.1387 24.8916 91.0434 25.3461 91.0434C25.7783 91.0434 26.166 91.1419 26.5093 91.3389C26.8525 91.5328 27.1227 91.7998 27.3197 92.1398C27.52 92.4799 27.6201 92.8676 27.6201 93.303C27.6201 93.6177 27.5788 93.8847 27.4961 94.104C27.4135 94.3232 27.2895 94.5267 27.1243 94.7142C26.959 94.9017 26.7524 95.1051 26.5045 95.3244L24.1972 97.3838L24.0875 97.0978H27.6201V98.0465H22.9767ZM31.1566 98.1943C30.6894 98.1943 30.2762 98.0926 29.9171 97.8892C29.5579 97.6826 29.2751 97.3997 29.0685 97.0406C28.8651 96.6815 28.7634 96.2683 28.7634 95.8011V93.4365C28.7634 92.9693 28.8651 92.5562 29.0685 92.197C29.2751 91.8379 29.5579 91.5566 29.9171 91.3532C30.2762 91.1466 30.6894 91.0434 31.1566 91.0434C31.6238 91.0434 32.0369 91.1466 32.3961 91.3532C32.7552 91.5566 33.0365 91.8379 33.2399 92.197C33.4465 92.5562 33.5498 92.9693 33.5498 93.4365V95.8011C33.5498 96.2683 33.4465 96.6815 33.2399 97.0406C33.0365 97.3997 32.7552 97.6826 32.3961 97.8892C32.0369 98.0926 31.6238 98.1943 31.1566 98.1943ZM31.1566 97.2408C31.4108 97.2408 31.6413 97.1804 31.8478 97.0597C32.0576 96.9357 32.2245 96.7705 32.3484 96.5639C32.4724 96.3541 32.5343 96.1205 32.5343 95.8631V93.365C32.5343 93.1108 32.4724 92.8803 32.3484 92.6738C32.2245 92.464 32.0576 92.2987 31.8478 92.178C31.6413 92.054 31.4108 91.992 31.1566 91.992C30.9023 91.992 30.6703 92.054 30.4606 92.178C30.254 92.2987 30.0887 92.464 29.9648 92.6738C29.8408 92.8803 29.7788 93.1108 29.7788 93.365V95.8631C29.7788 96.1205 29.8408 96.3541 29.9648 96.5639C30.0887 96.7705 30.254 96.9357 30.4606 97.0597C30.6703 97.1804 30.9023 97.2408 31.1566 97.2408ZM34.6901 98.0465L34.6949 97.1598L37.684 94.4806C37.9255 94.2676 38.0892 94.0642 38.175 93.8704C38.264 93.6765 38.3085 93.4826 38.3085 93.2887C38.3085 93.044 38.2545 92.8247 38.1464 92.6309C38.0383 92.4338 37.889 92.2781 37.6983 92.1637C37.5076 92.0493 37.2883 91.992 37.0404 91.992C36.7861 91.992 36.5589 92.0524 36.3587 92.1732C36.1616 92.2908 36.0075 92.4481 35.8962 92.6452C35.785 92.8422 35.731 93.0551 35.7341 93.284H34.7139C34.7139 92.839 34.8141 92.4497 35.0143 92.116C35.2177 91.7791 35.4958 91.5169 35.8486 91.3294C36.2013 91.1387 36.605 91.0434 37.0595 91.0434C37.4917 91.0434 37.8794 91.1419 38.2227 91.3389C38.5659 91.5328 38.8361 91.7998 39.0331 92.1398C39.2333 92.4799 39.3334 92.8676 39.3334 93.303C39.3334 93.6177 39.2921 93.8847 39.2095 94.104C39.1269 94.3232 39.0029 94.5267 38.8377 94.7142C38.6724 94.9017 38.4658 95.1051 38.2179 95.3244L35.9105 97.3838L35.8009 97.0978H39.3334V98.0465H34.6901ZM42.87 98.1943C42.4028 98.1943 41.9896 98.0926 41.6305 97.8892C41.2713 97.6826 40.9885 97.3997 40.7819 97.0406C40.5785 96.6815 40.4768 96.2683 40.4768 95.8011V93.4365C40.4768 92.9693 40.5785 92.5562 40.7819 92.197C40.9885 91.8379 41.2713 91.5566 41.6305 91.3532C41.9896 91.1466 42.4028 91.0434 42.87 91.0434C43.3372 91.0434 43.7503 91.1466 44.1095 91.3532C44.4686 91.5566 44.7499 91.8379 44.9533 92.197C45.1598 92.5562 45.2631 92.9693 45.2631 93.4365V95.8011C45.2631 96.2683 45.1598 96.6815 44.9533 97.0406C44.7499 97.3997 44.4686 97.6826 44.1095 97.8892C43.7503 98.0926 43.3372 98.1943 42.87 98.1943ZM42.87 97.2408C43.1242 97.2408 43.3546 97.1804 43.5612 97.0597C43.771 96.9357 43.9378 96.7705 44.0618 96.5639C44.1857 96.3541 44.2477 96.1205 44.2477 95.8631V93.365C44.2477 93.1108 44.1857 92.8803 44.0618 92.6738C43.9378 92.464 43.771 92.2987 43.5612 92.178C43.3546 92.054 43.1242 91.992 42.87 91.992C42.6157 91.992 42.3837 92.054 42.1739 92.178C41.9674 92.2987 41.8021 92.464 41.6781 92.6738C41.5542 92.8803 41.4922 93.1108 41.4922 93.365V95.8631C41.4922 96.1205 41.5542 96.3541 41.6781 96.5639C41.8021 96.7705 41.9674 96.9357 42.1739 97.0597C42.3837 97.1804 42.6157 97.2408 42.87 97.2408Z" fill="#868686"/>
<rect x="82.5" y="25.6676" width="14" height="60" rx="7" fill="#8CB679"/>
<path d="M78.9767 98.0465L78.9815 97.1598L81.9706 94.4806C82.2121 94.2676 82.3758 94.0642 82.4616 93.8704C82.5506 93.6765 82.5951 93.4826 82.5951 93.2887C82.5951 93.044 82.5411 92.8247 82.433 92.6309C82.325 92.4338 82.1756 92.2781 81.9849 92.1637C81.7942 92.0493 81.5749 91.992 81.327 91.992C81.0727 91.992 80.8455 92.0524 80.6453 92.1732C80.4482 92.2908 80.2941 92.4481 80.1829 92.6452C80.0716 92.8422 80.0176 93.0551 80.0208 93.284H79.0006C79.0006 92.839 79.1007 92.4497 79.3009 92.116C79.5043 91.7791 79.7824 91.5169 80.1352 91.3294C80.488 91.1387 80.8916 91.0434 81.3461 91.0434C81.7783 91.0434 82.166 91.1419 82.5093 91.3389C82.8525 91.5328 83.1227 91.7998 83.3197 92.1398C83.52 92.4799 83.6201 92.8676 83.6201 93.303C83.6201 93.6177 83.5788 93.8847 83.4961 94.104C83.4135 94.3232 83.2895 94.5267 83.1243 94.7142C82.959 94.9017 82.7524 95.1051 82.5045 95.3244L80.1972 97.3838L80.0875 97.0978H83.6201V98.0465H78.9767ZM87.1566 98.1943C86.6894 98.1943 86.2762 98.0926 85.9171 97.8892C85.5579 97.6826 85.2751 97.3997 85.0685 97.0406C84.8651 96.6815 84.7634 96.2683 84.7634 95.8011V93.4365C84.7634 92.9693 84.8651 92.5562 85.0685 92.197C85.2751 91.8379 85.5579 91.5566 85.9171 91.3532C86.2762 91.1466 86.6894 91.0434 87.1566 91.0434C87.6238 91.0434 88.0369 91.1466 88.3961 91.3532C88.7552 91.5566 89.0365 91.8379 89.2399 92.197C89.4465 92.5562 89.5498 92.9693 89.5498 93.4365V95.8011C89.5498 96.2683 89.4465 96.6815 89.2399 97.0406C89.0365 97.3997 88.7552 97.6826 88.3961 97.8892C88.0369 98.0926 87.6238 98.1943 87.1566 98.1943ZM87.1566 97.2408C87.4108 97.2408 87.6413 97.1804 87.8478 97.0597C88.0576 96.9357 88.2245 96.7705 88.3484 96.5639C88.4724 96.3541 88.5343 96.1205 88.5343 95.8631V93.365C88.5343 93.1108 88.4724 92.8803 88.3484 92.6738C88.2245 92.464 88.0576 92.2987 87.8478 92.178C87.6413 92.054 87.4108 91.992 87.1566 91.992C86.9023 91.992 86.6703 92.054 86.4606 92.178C86.254 92.2987 86.0887 92.464 85.9648 92.6738C85.8408 92.8803 85.7788 93.1108 85.7788 93.365V95.8631C85.7788 96.1205 85.8408 96.3541 85.9648 96.5639C86.0887 96.7705 86.254 96.9357 86.4606 97.0597C86.6703 97.1804 86.9023 97.2408 87.1566 97.2408ZM90.6901 98.0465L90.6949 97.1598L93.684 94.4806C93.9255 94.2676 94.0892 94.0642 94.175 93.8704C94.264 93.6765 94.3085 93.4826 94.3085 93.2887C94.3085 93.044 94.2545 92.8247 94.1464 92.6309C94.0383 92.4338 93.889 92.2781 93.6983 92.1637C93.5076 92.0493 93.2883 91.992 93.0404 91.992C92.7861 91.992 92.5589 92.0524 92.3587 92.1732C92.1616 92.2908 92.0075 92.4481 91.8962 92.6452C91.785 92.8422 91.731 93.0551 91.7341 93.284H90.7139C90.7139 92.839 90.8141 92.4497 91.0143 92.116C91.2177 91.7791 91.4958 91.5169 91.8486 91.3294C92.2013 91.1387 92.605 91.0434 93.0595 91.0434C93.4917 91.0434 93.8794 91.1419 94.2227 91.3389C94.5659 91.5328 94.8361 91.7998 95.0331 92.1398C95.2333 92.4799 95.3334 92.8676 95.3334 93.303C95.3334 93.6177 95.2921 93.8847 95.2095 94.104C95.1269 94.3232 95.0029 94.5267 94.8377 94.7142C94.6724 94.9017 94.4658 95.1051 94.2179 95.3244L91.9105 97.3838L91.8009 97.0978H95.3334V98.0465H90.6901ZM97.6734 98.0513V92.2828L96.3814 93.0695V91.9587L97.6734 91.1864H98.6888V98.0513H97.6734Z" fill="#868686"/>
<rect x="137" y="7.6676" width="14" height="78" rx="7" fill="#B4D6A5"/>
<path d="M132.977 98.0465L132.981 97.1598L135.971 94.4806C136.212 94.2676 136.376 94.0642 136.462 93.8704C136.551 93.6765 136.595 93.4826 136.595 93.2887C136.595 93.044 136.541 92.8247 136.433 92.6309C136.325 92.4338 136.176 92.2781 135.985 92.1637C135.794 92.0493 135.575 91.992 135.327 91.992C135.073 91.992 134.846 92.0524 134.645 92.1732C134.448 92.2908 134.294 92.4481 134.183 92.6452C134.072 92.8422 134.018 93.0551 134.021 93.284H133.001C133.001 92.839 133.101 92.4497 133.301 92.116C133.504 91.7791 133.782 91.5169 134.135 91.3294C134.488 91.1387 134.892 91.0434 135.346 91.0434C135.778 91.0434 136.166 91.1419 136.509 91.3389C136.853 91.5328 137.123 91.7998 137.32 92.1398C137.52 92.4799 137.62 92.8676 137.62 93.303C137.62 93.6177 137.579 93.8847 137.496 94.104C137.413 94.3232 137.29 94.5267 137.124 94.7142C136.959 94.9017 136.752 95.1051 136.505 95.3244L134.197 97.3838L134.088 97.0978H137.62V98.0465H132.977ZM141.157 98.1943C140.689 98.1943 140.276 98.0926 139.917 97.8892C139.558 97.6826 139.275 97.3997 139.069 97.0406C138.865 96.6815 138.763 96.2683 138.763 95.8011V93.4365C138.763 92.9693 138.865 92.5562 139.069 92.197C139.275 91.8379 139.558 91.5566 139.917 91.3532C140.276 91.1466 140.689 91.0434 141.157 91.0434C141.624 91.0434 142.037 91.1466 142.396 91.3532C142.755 91.5566 143.036 91.8379 143.24 92.197C143.446 92.5562 143.55 92.9693 143.55 93.4365V95.8011C143.55 96.2683 143.446 96.6815 143.24 97.0406C143.036 97.3997 142.755 97.6826 142.396 97.8892C142.037 98.0926 141.624 98.1943 141.157 98.1943ZM141.157 97.2408C141.411 97.2408 141.641 97.1804 141.848 97.0597C142.058 96.9357 142.224 96.7705 142.348 96.5639C142.472 96.3541 142.534 96.1205 142.534 95.8631V93.365C142.534 93.1108 142.472 92.8803 142.348 92.6738C142.224 92.464 142.058 92.2987 141.848 92.178C141.641 92.054 141.411 91.992 141.157 91.992C140.902 91.992 140.67 92.054 140.461 92.178C140.254 92.2987 140.089 92.464 139.965 92.6738C139.841 92.8803 139.779 93.1108 139.779 93.365V95.8631C139.779 96.1205 139.841 96.3541 139.965 96.5639C140.089 96.7705 140.254 96.9357 140.461 97.0597C140.67 97.1804 140.902 97.2408 141.157 97.2408ZM144.69 98.0465L144.695 97.1598L147.684 94.4806C147.926 94.2676 148.089 94.0642 148.175 93.8704C148.264 93.6765 148.308 93.4826 148.308 93.2887C148.308 93.044 148.254 92.8247 148.146 92.6309C148.038 92.4338 147.889 92.2781 147.698 92.1637C147.508 92.0493 147.288 91.992 147.04 91.992C146.786 91.992 146.559 92.0524 146.359 92.1732C146.162 92.2908 146.007 92.4481 145.896 92.6452C145.785 92.8422 145.731 93.0551 145.734 93.284H144.714C144.714 92.839 144.814 92.4497 145.014 92.116C145.218 91.7791 145.496 91.5169 145.849 91.3294C146.201 91.1387 146.605 91.0434 147.059 91.0434C147.492 91.0434 147.879 91.1419 148.223 91.3389C148.566 91.5328 148.836 91.7998 149.033 92.1398C149.233 92.4799 149.333 92.8676 149.333 93.303C149.333 93.6177 149.292 93.8847 149.209 94.104C149.127 94.3232 149.003 94.5267 148.838 94.7142C148.672 94.9017 148.466 95.1051 148.218 95.3244L145.911 97.3838L145.801 97.0978H149.333V98.0465H144.69ZM150.286 98.0465L150.291 97.1598L153.28 94.4806C153.521 94.2676 153.685 94.0642 153.771 93.8704C153.86 93.6765 153.904 93.4826 153.904 93.2887C153.904 93.044 153.85 92.8247 153.742 92.6309C153.634 92.4338 153.485 92.2781 153.294 92.1637C153.104 92.0493 152.884 91.992 152.636 91.992C152.382 91.992 152.155 92.0524 151.955 92.1732C151.758 92.2908 151.603 92.4481 151.492 92.6452C151.381 92.8422 151.327 93.0551 151.33 93.284H150.31C150.31 92.839 150.41 92.4497 150.61 92.116C150.814 91.7791 151.092 91.5169 151.445 91.3294C151.797 91.1387 152.201 91.0434 152.655 91.0434C153.088 91.0434 153.475 91.1419 153.819 91.3389C154.162 91.5328 154.432 91.7998 154.629 92.1398C154.829 92.4799 154.929 92.8676 154.929 93.303C154.929 93.6177 154.888 93.8847 154.805 94.104C154.723 94.3232 154.599 94.5267 154.434 94.7142C154.268 94.9017 154.062 95.1051 153.814 95.3244L151.507 97.3838L151.397 97.0978H154.929V98.0465H150.286Z" fill="#868686"/>
<rect x="192" y="0.667603" width="14" height="85" rx="7" fill="#8CB679"/>
<path d="M187.977 98.0465L187.981 97.1598L190.971 94.4806C191.212 94.2676 191.376 94.0642 191.462 93.8704C191.551 93.6765 191.595 93.4826 191.595 93.2887C191.595 93.044 191.541 92.8247 191.433 92.6309C191.325 92.4338 191.176 92.2781 190.985 92.1637C190.794 92.0493 190.575 91.992 190.327 91.992C190.073 91.992 189.846 92.0524 189.645 92.1732C189.448 92.2908 189.294 92.4481 189.183 92.6452C189.072 92.8422 189.018 93.0551 189.021 93.284H188.001C188.001 92.839 188.101 92.4497 188.301 92.116C188.504 91.7791 188.782 91.5169 189.135 91.3294C189.488 91.1387 189.892 91.0434 190.346 91.0434C190.778 91.0434 191.166 91.1419 191.509 91.3389C191.853 91.5328 192.123 91.7998 192.32 92.1398C192.52 92.4799 192.62 92.8676 192.62 93.303C192.62 93.6177 192.579 93.8847 192.496 94.104C192.413 94.3232 192.29 94.5267 192.124 94.7142C191.959 94.9017 191.752 95.1051 191.505 95.3244L189.197 97.3838L189.088 97.0978H192.62V98.0465H187.977ZM196.157 98.1943C195.689 98.1943 195.276 98.0926 194.917 97.8892C194.558 97.6826 194.275 97.3997 194.069 97.0406C193.865 96.6815 193.763 96.2683 193.763 95.8011V93.4365C193.763 92.9693 193.865 92.5562 194.069 92.197C194.275 91.8379 194.558 91.5566 194.917 91.3532C195.276 91.1466 195.689 91.0434 196.157 91.0434C196.624 91.0434 197.037 91.1466 197.396 91.3532C197.755 91.5566 198.036 91.8379 198.24 92.197C198.446 92.5562 198.55 92.9693 198.55 93.4365V95.8011C198.55 96.2683 198.446 96.6815 198.24 97.0406C198.036 97.3997 197.755 97.6826 197.396 97.8892C197.037 98.0926 196.624 98.1943 196.157 98.1943ZM196.157 97.2408C196.411 97.2408 196.641 97.1804 196.848 97.0597C197.058 96.9357 197.224 96.7705 197.348 96.5639C197.472 96.3541 197.534 96.1205 197.534 95.8631V93.365C197.534 93.1108 197.472 92.8803 197.348 92.6738C197.224 92.464 197.058 92.2987 196.848 92.178C196.641 92.054 196.411 91.992 196.157 91.992C195.902 91.992 195.67 92.054 195.461 92.178C195.254 92.2987 195.089 92.464 194.965 92.6738C194.841 92.8803 194.779 93.1108 194.779 93.365V95.8631C194.779 96.1205 194.841 96.3541 194.965 96.5639C195.089 96.7705 195.254 96.9357 195.461 97.0597C195.67 97.1804 195.902 97.2408 196.157 97.2408ZM199.69 98.0465L199.695 97.1598L202.684 94.4806C202.926 94.2676 203.089 94.0642 203.175 93.8704C203.264 93.6765 203.308 93.4826 203.308 93.2887C203.308 93.044 203.254 92.8247 203.146 92.6309C203.038 92.4338 202.889 92.2781 202.698 92.1637C202.508 92.0493 202.288 91.992 202.04 91.992C201.786 91.992 201.559 92.0524 201.359 92.1732C201.162 92.2908 201.007 92.4481 200.896 92.6452C200.785 92.8422 200.731 93.0551 200.734 93.284H199.714C199.714 92.839 199.814 92.4497 200.014 92.116C200.218 91.7791 200.496 91.5169 200.849 91.3294C201.201 91.1387 201.605 91.0434 202.059 91.0434C202.492 91.0434 202.879 91.1419 203.223 91.3389C203.566 91.5328 203.836 91.7998 204.033 92.1398C204.233 92.4799 204.333 92.8676 204.333 93.303C204.333 93.6177 204.292 93.8847 204.209 94.104C204.127 94.3232 204.003 94.5267 203.838 94.7142C203.672 94.9017 203.466 95.1051 203.218 95.3244L200.911 97.3838L200.801 97.0978H204.333V98.0465H199.69ZM207.398 98.18C207.058 98.18 206.739 98.1164 206.44 97.9893C206.141 97.859 205.882 97.6747 205.663 97.4363C205.447 97.1979 205.289 96.9167 205.191 96.5925L206.154 96.3255C206.246 96.6211 206.406 96.8483 206.635 97.0072C206.864 97.163 207.118 97.2392 207.398 97.2361C207.649 97.2329 207.87 97.1741 208.061 97.0597C208.251 96.9453 208.401 96.7911 208.509 96.5972C208.617 96.4002 208.671 96.1745 208.671 95.9203C208.671 95.5389 208.552 95.2243 208.313 94.9764C208.078 94.7285 207.77 94.6045 207.388 94.6045C207.28 94.6045 207.169 94.6204 207.055 94.6522C206.944 94.684 206.839 94.7253 206.74 94.7761L206.273 93.9895L208.695 91.849L208.8 92.1351H205.462V91.1864H209.591V92.1351L207.579 94.0706L207.57 93.7464C208.002 93.7464 208.377 93.8433 208.695 94.0372C209.013 94.2279 209.257 94.4885 209.429 94.819C209.604 95.1464 209.691 95.5135 209.691 95.9203C209.691 96.3589 209.588 96.7482 209.381 97.0883C209.178 97.4283 208.903 97.6953 208.556 97.8892C208.213 98.0831 207.827 98.18 207.398 98.18Z" fill="#868686"/>
<rect x="247" y="8.6676" width="14" height="77" rx="7" fill="#2C2758"/>
<path d="M242.977 98.0465L242.981 97.1598L245.971 94.4806C246.212 94.2676 246.376 94.0642 246.462 93.8704C246.551 93.6765 246.595 93.4826 246.595 93.2887C246.595 93.044 246.541 92.8247 246.433 92.6309C246.325 92.4338 246.176 92.2781 245.985 92.1637C245.794 92.0493 245.575 91.992 245.327 91.992C245.073 91.992 244.846 92.0524 244.645 92.1732C244.448 92.2908 244.294 92.4481 244.183 92.6452C244.072 92.8422 244.018 93.0551 244.021 93.284H243.001C243.001 92.839 243.101 92.4497 243.301 92.116C243.504 91.7791 243.782 91.5169 244.135 91.3294C244.488 91.1387 244.892 91.0434 245.346 91.0434C245.778 91.0434 246.166 91.1419 246.509 91.3389C246.853 91.5328 247.123 91.7998 247.32 92.1398C247.52 92.4799 247.62 92.8676 247.62 93.303C247.62 93.6177 247.579 93.8847 247.496 94.104C247.413 94.3232 247.29 94.5267 247.124 94.7142C246.959 94.9017 246.752 95.1051 246.505 95.3244L244.197 97.3838L244.088 97.0978H247.62V98.0465H242.977ZM251.157 98.1943C250.689 98.1943 250.276 98.0926 249.917 97.8892C249.558 97.6826 249.275 97.3997 249.069 97.0406C248.865 96.6815 248.763 96.2683 248.763 95.8011V93.4365C248.763 92.9693 248.865 92.5562 249.069 92.197C249.275 91.8379 249.558 91.5566 249.917 91.3532C250.276 91.1466 250.689 91.0434 251.157 91.0434C251.624 91.0434 252.037 91.1466 252.396 91.3532C252.755 91.5566 253.036 91.8379 253.24 92.197C253.446 92.5562 253.55 92.9693 253.55 93.4365V95.8011C253.55 96.2683 253.446 96.6815 253.24 97.0406C253.036 97.3997 252.755 97.6826 252.396 97.8892C252.037 98.0926 251.624 98.1943 251.157 98.1943ZM251.157 97.2408C251.411 97.2408 251.641 97.1804 251.848 97.0597C252.058 96.9357 252.224 96.7705 252.348 96.5639C252.472 96.3541 252.534 96.1205 252.534 95.8631V93.365C252.534 93.1108 252.472 92.8803 252.348 92.6738C252.224 92.464 252.058 92.2987 251.848 92.178C251.641 92.054 251.411 91.992 251.157 91.992C250.902 91.992 250.67 92.054 250.461 92.178C250.254 92.2987 250.089 92.464 249.965 92.6738C249.841 92.8803 249.779 93.1108 249.779 93.365V95.8631C249.779 96.1205 249.841 96.3541 249.965 96.5639C250.089 96.7705 250.254 96.9357 250.461 97.0597C250.67 97.1804 250.902 97.2408 251.157 97.2408ZM254.69 98.0465L254.695 97.1598L257.684 94.4806C257.926 94.2676 258.089 94.0642 258.175 93.8704C258.264 93.6765 258.308 93.4826 258.308 93.2887C258.308 93.044 258.254 92.8247 258.146 92.6309C258.038 92.4338 257.889 92.2781 257.698 92.1637C257.508 92.0493 257.288 91.992 257.04 91.992C256.786 91.992 256.559 92.0524 256.359 92.1732C256.162 92.2908 256.007 92.4481 255.896 92.6452C255.785 92.8422 255.731 93.0551 255.734 93.284H254.714C254.714 92.839 254.814 92.4497 255.014 92.116C255.218 91.7791 255.496 91.5169 255.849 91.3294C256.201 91.1387 256.605 91.0434 257.059 91.0434C257.492 91.0434 257.879 91.1419 258.223 91.3389C258.566 91.5328 258.836 91.7998 259.033 92.1398C259.233 92.4799 259.333 92.8676 259.333 93.303C259.333 93.6177 259.292 93.8847 259.209 94.104C259.127 94.3232 259.003 94.5267 258.838 94.7142C258.672 94.9017 258.466 95.1051 258.218 95.3244L255.911 97.3838L255.801 97.0978H259.333V98.0465H254.69ZM263.199 98.0513V96.8547H260.1V95.9108L262.331 91.1864H263.47L261.239 95.9108H263.199V94.0515H264.209V95.9108H264.891V96.8547H264.209V98.0513H263.199Z" fill="#868686"/>
</svg>
