<svg width="21" height="21" viewBox="0 0 21 21" fill="none" xmlns="http://www.w3.org/2000/svg">
<path fill-rule="evenodd" clip-rule="evenodd" d="M3.248 1.12325C3.46544 0.906136 3.72654 0.737711 4.014 0.629137C4.30146 0.520564 4.60871 0.474322 4.91539 0.493475C5.22207 0.512627 5.52118 0.596738 5.79289 0.740233C6.06461 0.883728 6.30273 1.08333 6.49147 1.32581L8.72213 4.1915C9.13098 4.71716 9.27513 5.4019 9.11358 6.0481L8.43382 8.76964C8.39867 8.91059 8.40057 9.05825 8.43933 9.19826C8.47809 9.33827 8.55239 9.46588 8.65502 9.5687L11.7084 12.622C11.8113 12.7249 11.9391 12.7993 12.0794 12.8381C12.2196 12.8768 12.3675 12.8786 12.5087 12.8432L15.2289 12.1635C15.5478 12.0837 15.8807 12.0775 16.2023 12.1454C16.524 12.2132 16.826 12.3532 17.0856 12.5549L19.9512 14.7843C20.9814 15.5859 21.0759 17.1082 20.1538 18.0291L18.8688 19.314C17.9492 20.2336 16.5748 20.6375 15.2936 20.1864C12.0143 19.0326 9.03687 17.1552 6.58218 14.6936C4.12074 12.2393 2.2434 9.26232 1.08941 5.98348C0.639553 4.70349 1.04343 3.32782 1.96304 2.40821L3.248 1.12325Z" fill="#B4D6A5"/>
</svg>
