<svg width="29" height="29" viewBox="0 0 29 29" fill="none" xmlns="http://www.w3.org/2000/svg">
<path fill-rule="evenodd" clip-rule="evenodd" d="M2.38745 13.7043C2.8349 7.66963 7.87283 2.9126 14.0218 2.9126C13.0525 2.9126 12.1894 3.33751 11.4794 3.98725C10.773 4.63373 10.176 5.53618 9.69313 6.60295C9.20743 7.67602 8.83015 8.93107 8.57479 10.2931C8.3701 11.3849 8.24552 12.5359 8.204 13.7043H2.38745ZM2.38745 15.4543H8.204C8.24552 16.6227 8.3701 17.7737 8.57479 18.8655C8.83015 20.2275 9.20743 21.4826 9.69313 22.5556C10.176 23.6224 10.773 24.5248 11.4794 25.1713C12.1894 25.8211 13.0525 26.246 14.0218 26.246C7.87283 26.246 2.8349 21.4889 2.38745 15.4543Z" fill="#B4D6A5"/>
<path d="M14.0218 2.9126C14.9912 2.9126 15.8542 3.33751 16.5642 3.98725C17.2707 4.63373 17.8677 5.53618 18.3505 6.60295C18.8362 7.67602 19.2135 8.93107 19.4689 10.2931C19.6736 11.3849 19.7981 12.5359 19.8396 13.7043H25.6562C25.2087 7.66963 20.1708 2.9126 14.0218 2.9126Z" fill="#B4D6A5"/>
<path d="M19.4689 18.8655C19.2135 20.2275 18.8362 21.4826 18.3505 22.5556C17.8677 23.6224 17.2707 24.5248 16.5642 25.1713C15.8542 25.8211 14.9912 26.246 14.0218 26.246C20.1708 26.246 25.2087 21.4889 25.6562 15.4543H19.8396C19.7981 16.6227 19.6736 17.7737 19.4689 18.8655Z" fill="#B4D6A5"/>
<path d="M14.0231 4.54004C13.7022 4.54004 13.2878 4.67656 12.8058 5.11762C12.3203 5.56194 11.8342 6.25831 11.4048 7.20707C10.9782 8.14955 10.6318 9.28728 10.3934 10.5587C10.2057 11.56 10.0892 12.6214 10.0483 13.7038H17.9978C17.957 12.6214 17.8405 11.56 17.6528 10.5587C17.4144 9.28728 17.068 8.14955 16.6414 7.20707C16.212 6.25831 15.7259 5.56194 15.2404 5.11762C14.7584 4.67656 14.3439 4.54004 14.0231 4.54004Z" fill="#8CB679"/>
<path d="M10.3934 18.5989C10.6318 19.8704 10.9782 21.0081 11.4048 21.9506C11.8342 22.8993 12.3203 23.5957 12.8058 24.04C13.2878 24.4811 13.7022 24.6176 14.0231 24.6176C14.3439 24.6176 14.7584 24.4811 15.2404 24.04C15.7259 23.5957 16.212 22.8993 16.6414 21.9506C17.068 21.0081 17.4144 19.8704 17.6528 18.5989C17.8405 17.5977 17.957 16.5363 17.9978 15.4538H10.0483C10.0892 16.5363 10.2057 17.5977 10.3934 18.5989Z" fill="#8CB679"/>
</svg>
