<svg width="22" height="22" viewBox="0 0 22 22" fill="none" xmlns="http://www.w3.org/2000/svg">
<path d="M17.8132 0.202148H3.37573C1.56355 0.202148 0.0944824 1.67121 0.0944824 3.4834V17.9209C0.0944824 19.7331 1.56355 21.2021 3.37573 21.2021H17.8132C19.6254 21.2021 21.0945 19.7331 21.0945 17.9209V3.4834C21.0945 1.67121 19.6254 0.202148 17.8132 0.202148Z" fill="white"/>
<path d="M6.87636 17.1748H4.00323V8.13298H6.87636V17.1748ZM5.43979 6.86543C4.51026 6.86543 3.83423 6.1894 3.83423 5.25986C3.83423 4.33032 4.59476 3.6543 5.43979 3.6543C6.36933 3.6543 7.04536 4.33032 7.04536 5.25986C7.04536 6.1894 6.36933 6.86543 5.43979 6.86543ZM17.3548 17.1748H14.4817V12.2736C14.4817 10.8371 13.8901 10.4146 13.0451 10.4146C12.2001 10.4146 11.355 11.0906 11.355 12.3581V17.1748H8.48192V8.13298H11.186V9.40053C11.4395 8.80901 12.4536 7.87947 13.8901 7.87947C15.4957 7.87947 17.1858 8.80901 17.1858 11.5976V17.1748H17.3548Z" fill="url(#paint0_linear_1356_3958)"/>
<defs>
<linearGradient id="paint0_linear_1356_3958" x1="5.34449" y1="-53.1729" x2="10.5945" y2="17.1748" gradientUnits="userSpaceOnUse">
<stop stop-color="#2C2758"/>
<stop offset="1" stop-color="#3B357A"/>
</linearGradient>
</defs>
</svg>
