<svg width="22" height="23" viewBox="0 0 22 23" fill="none" xmlns="http://www.w3.org/2000/svg">
<path d="M11 2.62155C6.94987 2.62155 3.66663 6.29059 3.66663 10.4132C3.66663 14.5035 6.00717 18.9496 9.65894 20.6565C10.5102 21.0544 11.4897 21.0544 12.341 20.6565C15.9927 18.9496 18.3333 14.5035 18.3333 10.4132C18.3333 6.29059 15.05 2.62155 11 2.62155Z" fill="#B4D6A5"/>
<path d="M11 12.2465C12.2657 12.2465 13.2917 11.2205 13.2917 9.95487C13.2917 8.68922 12.2657 7.66321 11 7.66321C9.73439 7.66321 8.70837 8.68922 8.70837 9.95487C8.70837 11.2205 9.73439 12.2465 11 12.2465Z" fill="#2C2758"/>
</svg>
