<svg width="17" height="17" viewBox="0 0 17 17" fill="none" xmlns="http://www.w3.org/2000/svg">
<path opacity="0.4" d="M4.75624 8.28551L4.75624 8.2855L8.96609 2.61156L8.9661 2.61155C9.00532 2.55868 9.04007 2.54298 9.05994 2.53778C9.08143 2.53215 9.10765 2.53306 9.1376 2.54646C9.19574 2.57248 9.27977 2.65631 9.27977 2.82601V7.21767C9.27977 7.70707 9.62511 8.20976 10.1712 8.20976H12.2188C12.266 8.20976 12.3378 8.24104 12.3835 8.36085C12.4286 8.47921 12.4155 8.61645 12.3428 8.71442L8.13297 14.3883L8.13296 14.3883C8.09374 14.4412 8.05899 14.4569 8.03912 14.4621C8.01763 14.4678 7.99141 14.4668 7.96146 14.4534C7.90333 14.4274 7.81929 14.3436 7.81929 14.1739V9.78225C7.81929 9.29285 7.47396 8.79016 6.92785 8.79016H4.88024C4.83306 8.79016 4.76123 8.75886 4.71557 8.63906C4.67046 8.52072 4.68354 8.38349 4.75624 8.28551Z" fill="#B4D6A5" stroke="#B4D6A5" stroke-width="0.701818"/>
<path d="M4.47443 8.07641L8.68428 2.40246C9.0135 1.95871 9.63068 2.23491 9.63068 2.82601V7.21767C9.63068 7.57181 9.87267 7.85885 10.1712 7.85885H12.2188C12.6839 7.85885 12.9319 8.50936 12.6246 8.92351L8.41478 14.5974C8.08556 15.0412 7.46838 14.765 7.46838 14.1739V9.78225C7.46838 9.42811 7.22639 9.14107 6.92785 9.14107H4.88024C4.41509 9.14107 4.16714 8.49055 4.47443 8.07641Z" fill="#8CB679" stroke="#B4D6A5" stroke-width="1.05273" stroke-linecap="round" stroke-linejoin="round"/>
</svg>
