<svg width="21" height="21" viewBox="0 0 21 21" fill="none" xmlns="http://www.w3.org/2000/svg">
<g clip-path="url(#clip0_1356_3908)">
<path d="M0.967653 5.25614C1.09294 4.70717 1.40093 4.21701 1.84118 3.86593C2.28143 3.51486 2.82784 3.32369 3.39093 3.32373H18.3034C18.8665 3.32369 19.4129 3.51486 19.8532 3.86593C20.2934 4.21701 20.6014 4.70717 20.7267 5.25614L10.8472 11.2945L0.967653 5.25614ZM0.905518 6.67531V15.5035L8.11695 11.082L0.905518 6.67531ZM9.30747 11.8114L1.14287 16.8158C1.3446 17.2412 1.66298 17.6005 2.06096 17.852C2.45895 18.1034 2.92016 18.2367 3.39093 18.2362H18.3034C18.7741 18.2363 19.2352 18.1028 19.6329 17.8511C20.0307 17.5994 20.3488 17.24 20.5503 16.8146L12.3857 11.8102L10.8472 12.7509L9.30747 11.8102V11.8114ZM13.5774 11.0832L20.7889 15.5035V6.67531L13.5774 11.082V11.0832Z" fill="#B4D6A5"/>
</g>
<defs>
<clipPath id="clip0_1356_3908">
<rect width="19.8833" height="19.8833" fill="white" transform="translate(0.905518 0.838379)"/>
</clipPath>
</defs>
</svg>
