<svg width="20" height="21" viewBox="0 0 20 21" fill="none" xmlns="http://www.w3.org/2000/svg">
<g clip-path="url(#clip0_1356_3956)">
<path d="M10.0361 0.651855C7.33823 0.651855 6.99897 0.664283 5.93894 0.711505C4.87891 0.761214 4.1569 0.927737 3.52436 1.17379C2.86087 1.42335 2.25989 1.81481 1.76344 2.32081C1.25775 2.81752 0.866338 3.41842 0.61642 4.08173C0.370364 4.71303 0.202598 5.43628 0.154132 6.49258C0.10691 7.5551 0.0944824 7.89312 0.0944824 10.5948C0.0944824 13.2939 0.10691 13.6319 0.154132 14.692C0.203841 15.7508 0.370364 16.4728 0.61642 17.1053C0.871175 17.759 1.21043 18.3132 1.76344 18.8662C2.3152 19.4192 2.86945 19.7597 3.52311 20.0133C4.1569 20.2593 4.87767 20.4271 5.93645 20.4755C6.99773 20.5228 7.33574 20.5352 10.0361 20.5352C12.7366 20.5352 13.0733 20.5228 14.1346 20.4755C15.1921 20.4258 15.9166 20.2593 16.5492 20.0133C17.2122 19.7636 17.8128 19.3721 18.3089 18.8662C18.8619 18.3132 19.2011 17.759 19.4559 17.1053C19.7007 16.4728 19.8685 15.7508 19.9182 14.692C19.9654 13.6319 19.9778 13.2939 19.9778 10.5935C19.9778 7.89312 19.9654 7.5551 19.9182 6.49383C19.8685 5.43628 19.7007 4.71303 19.4559 4.08173C19.206 3.4184 18.8146 2.81749 18.3089 2.32081C17.8126 1.81463 17.2115 1.42314 16.5479 1.17379C15.9142 0.927737 15.1909 0.759971 14.1334 0.711505C13.0721 0.664283 12.7353 0.651855 10.0337 0.651855H10.0374H10.0361ZM9.14513 2.44384H10.0374C12.6918 2.44384 13.0062 2.45254 14.0538 2.50101C15.0231 2.5445 15.55 2.70729 15.9005 2.84275C16.364 3.02294 16.6958 3.23917 17.0438 3.58713C17.3917 3.93509 17.6067 4.26565 17.7869 4.73042C17.9236 5.07963 18.0852 5.60653 18.1287 6.57585C18.1771 7.62345 18.1871 7.93785 18.1871 10.591C18.1871 13.2442 18.1771 13.5599 18.1287 14.6075C18.0852 15.5768 17.9224 16.1024 17.7869 16.4529C17.6275 16.8846 17.3731 17.2749 17.0425 17.5949C16.6946 17.9429 16.364 18.1579 15.8992 18.3381C15.5513 18.4748 15.0244 18.6363 14.0538 18.6811C13.0062 18.7283 12.6918 18.7395 10.0374 18.7395C7.38297 18.7395 7.06732 18.7283 6.01972 18.6811C5.0504 18.6363 4.52474 18.4748 4.17429 18.3381C3.74245 18.1789 3.35178 17.925 3.031 17.5949C2.70013 17.2744 2.44534 16.8837 2.28538 16.4516C2.14992 16.1024 1.98713 15.5755 1.94363 14.6062C1.89641 13.5586 1.88647 13.2442 1.88647 10.5886C1.88647 7.93413 1.89641 7.62096 1.94363 6.57336C1.98837 5.60405 2.14992 5.07714 2.28662 4.7267C2.46681 4.26317 2.68304 3.93136 3.031 3.5834C3.37896 3.23545 3.70952 3.02046 4.17429 2.84026C4.52474 2.70357 5.0504 2.54201 6.01972 2.49728C6.93683 2.45503 7.29225 2.4426 9.14513 2.44136V2.44384ZM15.3438 4.09416C15.1871 4.09416 15.032 4.12502 14.8872 4.18497C14.7425 4.24492 14.611 4.3328 14.5002 4.44358C14.3894 4.55436 14.3015 4.68587 14.2416 4.83062C14.1816 4.97536 14.1508 5.13049 14.1508 5.28716C14.1508 5.44382 14.1816 5.59896 14.2416 5.7437C14.3015 5.88844 14.3894 6.01996 14.5002 6.13074C14.611 6.24152 14.7425 6.32939 14.8872 6.38935C15.032 6.4493 15.1871 6.48016 15.3438 6.48016C15.6602 6.48016 15.9636 6.35447 16.1873 6.13074C16.4111 5.907 16.5368 5.60356 16.5368 5.28716C16.5368 4.97075 16.4111 4.66731 16.1873 4.44358C15.9636 4.21985 15.6602 4.09416 15.3438 4.09416ZM10.0374 5.48848C9.3602 5.47791 8.68768 5.60217 8.05897 5.85401C7.43027 6.10585 6.85794 6.48025 6.37532 6.9554C5.89269 7.43055 5.50942 7.99697 5.2478 8.62167C4.98618 9.24637 4.85145 9.91687 4.85145 10.5941C4.85145 11.2714 4.98618 11.9419 5.2478 12.5666C5.50942 13.1913 5.89269 13.7577 6.37532 14.2329C6.85794 14.708 7.43027 15.0824 8.05897 15.3343C8.68768 15.5861 9.3602 15.7104 10.0374 15.6998C11.3777 15.6789 12.656 15.1318 13.5965 14.1766C14.5369 13.2213 15.064 11.9346 15.064 10.5941C15.064 9.25367 14.5369 7.96695 13.5965 7.01173C12.656 6.0565 11.3777 5.50939 10.0374 5.48848ZM10.0374 7.27922C10.9164 7.27922 11.7594 7.6284 12.381 8.24996C13.0025 8.87151 13.3517 9.71451 13.3517 10.5935C13.3517 11.4725 13.0025 12.3155 12.381 12.9371C11.7594 13.5586 10.9164 13.9078 10.0374 13.9078C9.15838 13.9078 8.31538 13.5586 7.69383 12.9371C7.07227 12.3155 6.72309 11.4725 6.72309 10.5935C6.72309 9.71451 7.07227 8.87151 7.69383 8.24996C8.31538 7.6284 9.15838 7.27922 10.0374 7.27922Z" fill="white"/>
</g>
<defs>
<clipPath id="clip0_1356_3956">
<rect width="19.8833" height="19.8833" fill="white" transform="translate(0.0944824 0.651855)"/>
</clipPath>
</defs>
</svg>
