<svg width="305" height="43" viewBox="0 0 305 43" fill="none" xmlns="http://www.w3.org/2000/svg">
<path d="M22.1282 22.5782C21.9951 22.6867 21.857 22.8004 21.7239 22.9037V32.4997H28.7188V15.9121C26.9688 18.0824 24.8043 20.382 22.1282 22.5782ZM21.7291 3.54108V18.0308C24.876 15.1008 27.1428 12.1088 28.7239 9.63357V2.44806C28.7239 1.37839 27.8643 0.510249 26.8051 0.510249H23.653C22.5938 0.510249 21.7342 1.37839 21.7342 2.44806L21.7291 3.54108Z" fill="white"/>
<path d="M10.8623 12.2218V25.2746C13.1205 24.2071 15.4914 22.8507 17.8623 21.1179V12.2269C17.8623 11.1594 17.002 10.293 15.942 10.293H12.7877C11.7277 10.293 10.8674 11.1594 10.8674 12.2269L10.8623 12.2218ZM10.8623 29.3281V32.4998H17.8623V25.5995C15.4658 27.1518 13.0949 28.3638 10.8623 29.3281Z" fill="#8CB679"/>
<path d="M0 32.4842V32.4996H6.99998V30.7367C4.20921 31.6567 1.78712 32.1758 0 32.4842ZM0 20.9046V28.7323C1.83833 28.3982 4.25017 27.8277 6.99998 26.846V20.9098C6.99998 19.8459 6.13971 18.9824 5.07973 18.9824H1.92026C0.860276 18.9824 0 19.8459 0 20.9098V20.9046Z" fill="#B4D6A5"/>
<path d="M53.0983 19.2297V32.4946H46.687V20.1794C46.687 18.9131 46.3379 17.9426 45.645 17.2732C44.9417 16.5881 44.0588 16.256 42.9706 16.256C41.754 16.256 40.7787 16.6296 40.0652 17.3821C39.3569 18.1295 38.9975 19.2349 38.9975 20.7088V32.4998H32.5862V10.293H38.9975V12.9242C40.2757 11.17 42.3238 10.293 45.1111 10.293C47.3902 10.293 49.2946 11.0818 50.8141 12.6699C52.3386 14.2475 53.1034 16.4376 53.1034 19.2297H53.0983Z" fill="white"/>
<path d="M70.2116 10.293L65.6529 24.3997L60.9485 10.293H53.5865L61.9761 32.4998H69.3347L77.6037 10.293H70.2416H70.2116Z" fill="white"/>
<path d="M98.9653 21.3964C98.9653 18.2269 97.9622 15.5857 95.9405 13.4676C93.9188 11.3443 91.3878 10.293 88.3579 10.293C85.0965 10.293 82.4266 11.3443 80.3535 13.4676C78.2803 15.5806 77.2412 18.2269 77.2412 21.3964C77.2412 24.5658 78.2855 27.2433 80.3946 29.3511C82.4935 31.4485 85.3074 32.4998 88.8157 32.4998C92.8231 32.4998 95.8633 31.0601 97.9313 28.1755L92.9105 25.265C91.9331 26.337 90.6008 26.8652 88.9032 26.8652C86.2745 26.8652 84.6078 25.8813 83.8824 23.9185H98.7184C98.883 23.1417 98.9653 22.2975 98.9653 21.3964ZM83.759 19.2109C84.366 16.9892 85.8835 15.8861 88.3116 15.8861C90.7397 15.8861 92.1235 16.9944 92.7408 19.2109H83.759Z" fill="white"/>
<path d="M116.955 22.0866C116.239 21.1147 115.368 20.4093 114.356 19.9913C113.339 19.5628 112.328 19.2127 111.316 18.9462C110.299 18.6797 109.438 18.408 108.717 18.1415C108.001 17.8645 107.638 17.5144 107.638 17.0964C107.638 16.3022 108.229 15.8998 109.412 15.8998C110.595 15.8998 111.565 16.5268 112.25 17.7757L117.645 14.839C116.779 13.3655 115.622 12.242 114.19 11.4635C112.753 10.6796 111.16 10.293 109.412 10.293C107.083 10.293 105.111 10.8991 103.529 12.1219C101.941 13.3341 101.142 15.0481 101.142 17.2636C101.142 18.6222 101.495 19.7718 102.216 20.7071C102.932 21.6373 103.804 22.3218 104.816 22.7712C105.832 23.2101 106.844 23.5654 107.856 23.8319C108.872 24.0984 109.734 24.3754 110.455 24.6628C111.171 24.9397 111.534 25.295 111.534 25.7235C111.534 26.5961 110.771 27.0351 109.246 27.0351C107.42 27.0351 106.221 26.2042 105.666 24.5269L100.172 27.6778C101.775 31.0534 104.81 32.7412 109.251 32.7412C111.731 32.7412 113.817 32.1507 115.497 30.975C117.189 29.7941 118.034 28.0645 118.034 25.7601C118.034 24.2865 117.682 23.0638 116.96 22.0814L116.955 22.0866Z" fill="white"/>
<path d="M134.689 16.6162V10.2283H130.208V4.01709L123.685 6.01134V10.2283H120.206V16.6162H123.685V24.4685C123.685 27.6988 124.484 29.932 126.078 31.1939C127.672 32.4455 129.678 32.887 134.689 32.7V26.3745C133.095 26.4628 131.949 26.3901 131.252 26.1512C130.554 25.9227 130.208 25.3514 130.208 24.4634V16.611H134.689V16.6162Z" fill="white"/>
<path d="M152.508 10.293V22.5123C152.508 24.0281 152.149 25.1728 151.411 25.9516C150.684 26.7304 149.696 27.1119 148.436 27.1119C147.334 27.1119 146.423 26.7617 145.706 26.0561C144.989 25.3609 144.63 24.3574 144.63 23.0455V10.293H138.069V24.0281C138.069 26.9133 138.822 29.2079 140.415 30.8125C141.685 32.0878 143.959 32.7412 146.295 32.7412C149.158 32.7412 151.196 32.3596 152.508 30.5459V32.6419H159.069V10.293H152.508Z" fill="white"/>
<path d="M168.516 1.56644C167.737 0.789922 166.798 0.396484 165.698 0.396484C164.598 0.396484 163.669 0.784745 162.885 1.56644C162.107 2.35332 161.707 3.29032 161.707 4.37745C161.707 5.46458 162.107 6.40159 162.885 7.18328C163.664 7.97016 164.603 8.35842 165.698 8.35842C166.793 8.35842 167.737 7.97016 168.516 7.18328C169.294 6.40676 169.689 5.46976 169.689 4.37745C169.689 3.28515 169.3 2.35332 168.516 1.56644ZM162.371 10.293V32.4151C162.371 33.5643 162.096 34.3771 161.531 34.8637C160.97 35.3503 160.188 35.5792 158.947 35.5171V42.0343C162.44 42.2362 164.894 41.4175 166.539 39.8904C168.194 38.358 169.019 35.868 169.019 32.4151V10.293H162.371Z" fill="white"/>
<path d="M192.857 0.396484C192.363 0.396484 191.977 0.396486 191.977 0.396486V14.8003C190.089 11.7589 187.361 10.1729 183.8 10.0477C180.712 9.93819 177.758 11.1016 175.581 13.3187C173.425 15.5098 172.344 18.2017 172.344 21.3736C172.344 24.5455 173.425 27.2374 175.581 29.4285C177.763 31.6457 180.717 32.7986 183.81 32.6891C187.371 32.5743 190.089 30.9884 191.977 27.9365V32.7412H194.792V0.396484H192.857ZM189.543 27.4565C187.927 29.1155 185.93 29.945 183.563 29.945C181.196 29.945 179.209 29.1155 177.593 27.4565C175.977 25.7976 175.159 23.7682 175.159 21.3788C175.159 18.9895 175.977 16.9601 177.593 15.3012C179.209 13.6422 181.206 12.8127 183.563 12.8127C185.92 12.8127 187.922 13.6422 189.543 15.3012C191.159 16.9601 191.977 18.9843 191.977 21.3788C191.977 23.7734 191.159 25.7976 189.543 27.4565Z" fill="white"/>
<path d="M216.911 13.5213C214.753 11.3673 212.128 10.293 209.034 10.293C205.94 10.293 203.314 11.3673 201.157 13.5213C198.999 15.6855 197.93 18.3508 197.93 21.5171C197.93 24.6834 198.999 27.3487 201.157 29.5129C203.314 31.6668 205.94 32.7412 209.034 32.7412C212.128 32.7412 214.753 31.6668 216.911 29.5129C219.058 27.3487 220.137 24.6834 220.137 21.5171C220.137 18.3508 219.058 15.6855 216.911 13.5213ZM214.947 27.5346C213.339 29.1823 211.375 30.0036 209.034 30.0036C206.693 30.0036 204.724 29.1823 203.121 27.5346C201.513 25.8921 200.714 23.8879 200.714 21.5171C200.714 19.1462 201.513 17.1421 203.121 15.4996C204.719 13.857 206.693 13.0306 209.034 13.0306C211.375 13.0306 213.339 13.8622 214.947 15.4996C216.545 17.1421 217.354 19.1462 217.354 21.5171C217.354 23.8879 216.545 25.8921 214.947 27.5346Z" fill="white"/>
<path d="M242.805 13.5434C240.858 11.3747 238.507 10.293 235.752 10.293C232.997 10.293 231.009 11.1563 229.537 12.8881V10.293H223.276V42.3963H229.537V30.1281C231.014 31.8599 233.084 32.7232 235.752 32.7232C238.42 32.7232 240.858 31.6415 242.805 29.4728C244.753 27.3042 245.724 24.6571 245.724 21.5107C245.724 18.3643 244.753 15.7172 242.805 13.5486V13.5434ZM238.062 25.2811C237.137 26.2224 235.941 26.6853 234.5 26.6853C233.058 26.6853 231.862 26.2224 230.927 25.2811C229.992 24.3502 229.532 23.0969 229.532 21.5055C229.532 19.9141 229.997 18.6608 230.927 17.7298C231.862 16.7885 233.048 16.3257 234.5 16.3257C235.951 16.3257 237.137 16.7885 238.062 17.7298C238.998 18.6608 239.468 19.9245 239.468 21.5055C239.468 23.0865 238.998 24.3502 238.062 25.2811Z" fill="white"/>
<path d="M267.124 13.5436C264.966 11.3817 262.344 10.293 259.246 10.293C256.148 10.293 253.515 11.3817 251.358 13.5436C249.211 15.7158 248.137 18.3702 248.137 21.5171C248.137 24.664 249.211 27.3184 251.358 29.4906C253.515 31.6628 256.138 32.7412 259.246 32.7412C262.354 32.7412 264.966 31.6628 267.124 29.4906C269.271 27.3184 270.344 24.664 270.344 21.5171C270.344 18.3702 269.271 15.7158 267.124 13.5436ZM262.676 25.1306C261.761 26.0689 260.606 26.5407 259.246 26.5407C257.886 26.5407 256.731 26.0689 255.805 25.1306C254.88 24.2026 254.425 22.9946 254.425 21.5171C254.425 20.0395 254.88 18.842 255.805 17.9036C256.731 16.9756 257.876 16.5038 259.246 16.5038C260.616 16.5038 261.761 16.9756 262.676 17.9036C263.591 18.8316 264.056 20.0447 264.056 21.5171C264.056 22.9894 263.601 24.2026 262.676 25.1306Z" fill="white"/>
<path d="M273.241 0.638184V32.7416H279.758V0.638184H273.241Z" fill="white"/>
<path d="M304.616 21.4044C304.616 18.1608 303.591 15.4595 301.551 13.2954C299.511 11.1417 296.954 10.0518 293.889 10.0518C290.599 10.0518 287.898 11.1364 285.797 13.2954C283.706 15.4595 282.655 18.1608 282.655 21.4044C282.655 24.648 283.716 27.3753 285.843 29.5186C287.97 31.6671 290.809 32.7414 294.355 32.7414C298.409 32.7414 301.474 31.2604 303.56 28.314L298.496 25.3468C297.507 26.4419 296.159 26.9842 294.443 26.9842C291.788 26.9842 290.102 25.9778 289.374 23.9753H304.364C304.528 23.1722 304.621 22.317 304.621 21.3992L304.616 21.4044ZM289.241 19.1672C289.861 16.904 291.393 15.7724 293.848 15.7724C296.303 15.7724 297.702 16.904 298.322 19.1672H289.241Z" fill="white"/>
</svg>
