<svg width="201" height="29" viewBox="0 0 201 29" fill="none" xmlns="http://www.w3.org/2000/svg">
<path d="M14.549 15.2953C14.4615 15.3684 14.3707 15.4449 14.2832 15.5144V21.9722H18.8822V10.8093C17.7316 12.2699 16.3085 13.8174 14.549 15.2953ZM14.2866 2.48399V12.2351C16.3556 10.2633 17.846 8.24979 18.8856 6.58404V1.74842C18.8856 1.02856 18.3204 0.444332 17.624 0.444332H15.5516C14.8551 0.444332 14.2899 1.02856 14.2899 1.74842L14.2866 2.48399Z" fill="#2C2758"/>
<path d="M7.14185 8.32585V17.11C8.6266 16.3916 10.1854 15.4788 11.7442 14.3127V8.32932C11.7442 7.6109 11.1786 7.02783 10.4817 7.02783H8.40776C7.71083 7.02783 7.14521 7.6109 7.14521 8.32932L7.14185 8.32585ZM7.14185 19.8379V21.9723H11.7442V17.3286C10.1686 18.3733 8.60977 19.1889 7.14185 19.8379Z" fill="#8DB678"/>
<path d="M0 21.9618V21.9721H4.6024V20.7858C2.7675 21.4049 1.17501 21.7542 0 21.9618ZM0 14.1691V19.4368C1.20868 19.212 2.79443 18.8281 4.6024 18.1675V14.1725C4.6024 13.4566 4.03678 12.8755 3.33985 12.8755H1.26255C0.56562 12.8755 0 13.4566 0 14.1725V14.1691Z" fill="#B2D6A4"/>
<path d="M34.9115 13.042V21.9688H30.6961V13.6811C30.6961 12.8289 30.4666 12.1758 30.011 11.7253C29.5486 11.2643 28.9681 11.0407 28.2526 11.0407C27.4528 11.0407 26.8115 11.2922 26.3424 11.7986C25.8766 12.3015 25.6404 13.0454 25.6404 14.0373V21.9723H21.425V7.02783H25.6404V8.79854C26.4808 7.61807 27.8274 7.02783 29.66 7.02783C31.1585 7.02783 32.4106 7.5587 33.4096 8.62741C34.412 9.68913 34.9148 11.163 34.9148 13.042H34.9115Z" fill="#2C2758"/>
<path d="M46.1632 7.02783L43.1659 16.5212L40.0729 7.02783H35.2324L40.7485 21.9723H45.5867L51.0234 7.02783H46.183H46.1632Z" fill="#2C2758"/>
<path d="M65.0684 14.5001C65.0684 12.3671 64.4089 10.5897 63.0796 9.16425C61.7504 7.73533 60.0863 7.02783 58.0942 7.02783C55.9498 7.02783 54.1944 7.73533 52.8314 9.16425C51.4683 10.5862 50.7851 12.3671 50.7851 14.5001C50.7851 16.633 51.4717 18.4349 52.8584 19.8533C54.2384 21.2648 56.0885 21.9723 58.3952 21.9723C61.03 21.9723 63.0289 21.0035 64.3886 19.0622L61.0875 17.1035C60.4448 17.825 59.5688 18.1804 58.4527 18.1804C56.7244 18.1804 55.6285 17.5183 55.1516 16.1974H64.9061C65.0143 15.6746 65.0684 15.1065 65.0684 14.5001ZM55.0704 13.0293C55.4695 11.5342 56.4673 10.7918 58.0637 10.7918C59.6602 10.7918 60.57 11.5377 60.9759 13.0293H55.0704Z" fill="#2C2758"/>
<path d="M76.8965 14.9646C76.4258 14.3105 75.8527 13.8358 75.1876 13.5545C74.519 13.2661 73.8539 13.0305 73.1888 12.8512C72.5202 12.6718 71.954 12.489 71.4798 12.3096C71.0091 12.1233 70.7704 11.8877 70.7704 11.6063C70.7704 11.0718 71.1592 10.8011 71.9369 10.8011C72.7146 10.8011 73.3525 11.223 73.8027 12.0635L77.3502 10.0872C76.7805 9.09554 76.0199 8.33949 75.0784 7.81553C74.1336 7.28805 73.0864 7.02783 71.9369 7.02783C70.4054 7.02783 69.1092 7.43575 68.0689 8.25861C67.0251 9.07444 66.4998 10.2279 66.4998 11.7189C66.4998 12.6332 66.7317 13.4068 67.2059 14.0362C67.6766 14.6622 68.2496 15.1228 68.9148 15.4253C69.5833 15.7207 70.2485 15.9598 70.9136 16.1391C71.5822 16.3185 72.1484 16.5048 72.6225 16.6982C73.0932 16.8846 73.332 17.1237 73.332 17.4121C73.332 17.9994 72.8306 18.2947 71.8278 18.2947C70.6271 18.2947 69.8392 17.7356 69.4742 16.6068L65.8619 18.7273C66.9159 20.9989 68.9114 22.1348 71.8312 22.1348C73.4616 22.1348 74.8329 21.7374 75.938 20.9462C77.05 20.1515 77.606 18.9875 77.606 17.4367C77.606 16.4451 77.374 15.6222 76.8999 14.9611L76.8965 14.9646Z" fill="#2C2758"/>
<path d="M88.5564 11.283V6.98418H85.61V2.8042L81.321 4.14627V6.98418H79.0342V11.283H81.321V16.5674C81.321 18.7413 81.8466 20.2441 82.8946 21.0934C83.9426 21.9357 85.2618 22.2327 88.5564 22.1069V17.85C87.5084 17.9094 86.7551 17.8605 86.2964 17.6998C85.8377 17.546 85.61 17.1615 85.61 16.5639V11.2795H88.5564V11.283Z" fill="#2C2758"/>
<path d="M100.272 7.02783V15.2511C100.272 16.2711 100.036 17.0415 99.5511 17.5656C99.0729 18.0897 98.4229 18.3465 97.5945 18.3465C96.8704 18.3465 96.271 18.1108 95.7995 17.6359C95.3281 17.1681 95.0923 16.4927 95.0923 15.6099V7.02783H90.7784V16.2711C90.7784 18.2128 91.2735 19.757 92.3208 20.8368C93.156 21.6951 94.6512 22.1348 96.1868 22.1348C98.0693 22.1348 99.4096 21.878 100.272 20.6574V22.0679H104.586V7.02783H100.272Z" fill="#2C2758"/>
<path d="M110.797 1.15502C110.285 0.632447 109.668 0.367676 108.944 0.367676C108.221 0.367676 107.61 0.628963 107.095 1.15502C106.583 1.68456 106.32 2.31514 106.32 3.04674C106.32 3.77835 106.583 4.40892 107.095 4.93498C107.607 5.46452 108.224 5.72581 108.944 5.72581C109.664 5.72581 110.285 5.46452 110.797 4.93498C111.309 4.4124 111.568 3.78183 111.568 3.04674C111.568 2.31165 111.312 1.68456 110.797 1.15502ZM106.757 7.02773V21.9152C106.757 22.6886 106.576 23.2355 106.204 23.563C105.836 23.8905 105.321 24.0445 104.506 24.0027V28.3886C106.802 28.5245 108.415 27.9735 109.497 26.9458C110.586 25.9146 111.128 24.2389 111.128 21.9152V7.02773H106.757Z" fill="#2C2758"/>
<path d="M126.801 0.367676C126.476 0.367676 126.223 0.367677 126.223 0.367677V10.061C124.981 8.01421 123.188 6.94693 120.846 6.86267C118.816 6.78894 116.874 7.57185 115.442 9.06394C114.025 10.5385 113.314 12.3501 113.314 14.4846C113.314 16.6192 114.025 18.4308 115.442 19.9053C116.877 21.3974 118.819 22.1733 120.853 22.0996C123.194 22.0223 124.981 20.955 126.223 18.9012V22.1347H128.074V0.367676H126.801ZM124.622 18.5782C123.56 19.6947 122.247 20.2529 120.69 20.2529C119.134 20.2529 117.828 19.6947 116.765 18.5782C115.703 17.4618 115.165 16.0961 115.165 14.4881C115.165 12.8802 115.703 11.5145 116.765 10.398C117.828 9.28161 119.141 8.72339 120.69 8.72339C122.24 8.72339 123.556 9.28161 124.622 10.398C125.685 11.5145 126.223 12.8767 126.223 14.4881C126.223 16.0996 125.685 17.4618 124.622 18.5782Z" fill="#2C2758"/>
<path d="M142.616 9.20037C141.198 7.75085 139.471 7.02783 137.437 7.02783C135.403 7.02783 133.676 7.75085 132.258 9.20037C130.839 10.6568 130.137 12.4505 130.137 14.5813C130.137 16.7121 130.839 18.5058 132.258 19.9622C133.676 21.4118 135.403 22.1348 137.437 22.1348C139.471 22.1348 141.198 21.4118 142.616 19.9622C144.028 18.5058 144.737 16.7121 144.737 14.5813C144.737 12.4505 144.028 10.6568 142.616 9.20037ZM141.325 18.6309C140.267 19.7398 138.976 20.2925 137.437 20.2925C135.898 20.2925 134.603 19.7398 133.549 18.6309C132.492 17.5255 131.967 16.1768 131.967 14.5813C131.967 12.9858 132.492 11.6371 133.549 10.5317C134.6 9.42631 135.898 8.87014 137.437 8.87014C138.976 8.87014 140.267 9.42979 141.325 10.5317C142.375 11.6371 142.907 12.9858 142.907 14.5813C142.907 16.1768 142.375 17.5255 141.325 18.6309Z" fill="#2C2758"/>
<path d="M159.641 9.21524C158.361 7.7558 156.815 7.02783 155.004 7.02783C153.192 7.02783 151.885 7.60881 150.917 8.77426V7.02783H146.801V28.6324H150.917V20.3762C151.889 21.5417 153.25 22.1227 155.004 22.1227C156.758 22.1227 158.361 21.3947 159.641 19.9353C160.922 18.4758 161.56 16.6944 161.56 14.577C161.56 12.4596 160.922 10.6782 159.641 9.21874V9.21524ZM156.523 17.1144C155.915 17.7479 155.128 18.0594 154.18 18.0594C153.233 18.0594 152.446 17.7479 151.831 17.1144C151.217 16.4879 150.914 15.6445 150.914 14.5735C150.914 13.5025 151.22 12.6591 151.831 12.0326C152.446 11.3991 153.226 11.0877 154.18 11.0877C155.135 11.0877 155.915 11.3991 156.523 12.0326C157.138 12.6591 157.447 13.5095 157.447 14.5735C157.447 15.6375 157.138 16.4879 156.523 17.1144Z" fill="#2C2758"/>
<path d="M175.63 9.21537C174.212 7.7605 172.488 7.02783 170.451 7.02783C168.414 7.02783 166.683 7.7605 165.265 9.21537C163.853 10.6772 163.147 12.4635 163.147 14.5813C163.147 16.6991 163.853 18.4854 165.265 19.9472C166.683 21.4091 168.407 22.1348 170.451 22.1348C172.494 22.1348 174.212 21.4091 175.63 19.9472C177.042 18.4854 177.748 16.6991 177.748 14.5813C177.748 12.4635 177.042 10.6772 175.63 9.21537ZM172.706 17.0131C172.104 17.6446 171.345 17.962 170.451 17.962C169.557 17.962 168.797 17.6446 168.189 17.0131C167.58 16.3886 167.281 15.5756 167.281 14.5813C167.281 13.587 167.58 12.781 168.189 12.1495C168.797 11.525 169.55 11.2075 170.451 11.2075C171.352 11.2075 172.104 11.525 172.706 12.1495C173.308 12.7741 173.614 13.5905 173.614 14.5813C173.614 15.5722 173.314 16.3886 172.706 17.0131Z" fill="#2C2758"/>
<path d="M179.652 0.530029V22.1346H183.937V0.530029H179.652Z" fill="#2C2758"/>
<path d="M200.281 14.5052C200.281 12.3223 199.607 10.5045 198.266 9.04808C196.925 7.5987 195.243 6.86523 193.228 6.86523C191.065 6.86523 189.289 7.59519 187.908 9.04808C186.533 10.5045 185.842 12.3223 185.842 14.5052C185.842 16.688 186.54 18.5234 187.938 19.9658C189.336 21.4117 191.203 22.1346 193.535 22.1346C196.2 22.1346 198.215 21.138 199.587 19.1551L196.257 17.1583C195.607 17.8953 194.721 18.2602 193.592 18.2602C191.847 18.2602 190.738 17.5829 190.26 16.2353H200.116C200.223 15.6949 200.284 15.1193 200.284 14.5017L200.281 14.5052ZM190.172 12.9997C190.58 11.4766 191.587 10.715 193.201 10.715C194.815 10.715 195.735 11.4766 196.143 12.9997H190.172Z" fill="#2C2758"/>
</svg>
