<svg width="92" height="19" viewBox="0 0 92 19" fill="none" xmlns="http://www.w3.org/2000/svg">
<path d="M8.89945 2.33139C9.09327 1.73487 9.93718 1.73487 10.131 2.33139L11.405 6.25227C11.4917 6.51904 11.7403 6.69966 12.0208 6.69966H16.1434C16.7706 6.69966 17.0314 7.50227 16.524 7.87094L13.1887 10.2942C12.9618 10.4591 12.8668 10.7513 12.9535 11.0181L14.2275 14.939C14.4213 15.5355 13.7385 16.0315 13.2311 15.6629L9.8958 13.2396C9.66887 13.0747 9.36158 13.0747 9.13465 13.2396L5.79935 15.6628C5.29192 16.0315 4.60918 15.5355 4.803 14.939L6.07697 11.0181C6.16365 10.7513 6.0687 10.4591 5.84177 10.2942L2.50646 7.87094C1.99903 7.50227 2.25982 6.69966 2.88703 6.69966H7.0097C7.2902 6.69966 7.5388 6.51905 7.62548 6.25227L8.89945 2.33139Z" fill="white"/>
<path d="M27.0285 2.33139C27.2223 1.73487 28.0662 1.73487 28.26 2.33139L29.534 6.25227C29.6207 6.51904 29.8693 6.69966 30.1498 6.69966H34.2725C34.8997 6.69966 35.1604 7.50227 34.653 7.87094L31.3177 10.2942C31.0908 10.4591 30.9958 10.7513 31.0825 11.0181L32.3565 14.939C32.5503 15.5355 31.8676 16.0315 31.3601 15.6629L28.0248 13.2396C27.7979 13.0747 27.4906 13.0747 27.2637 13.2396L23.9284 15.6628C23.421 16.0315 22.7382 15.5355 22.932 14.939L24.206 11.0181C24.2927 10.7513 24.1977 10.4591 23.9708 10.2942L20.6355 7.87094C20.1281 7.50227 20.3888 6.69966 21.0161 6.69966H25.1387C25.4192 6.69966 25.6678 6.51905 25.7545 6.25227L27.0285 2.33139Z" fill="white"/>
<path d="M45.1576 2.33139C45.3514 1.73487 46.1954 1.73487 46.3892 2.33139L47.6632 6.25227C47.7498 6.51904 47.9984 6.69966 48.2789 6.69966H52.4016C53.0288 6.69966 53.2896 7.50227 52.7822 7.87094L49.4469 10.2942C49.2199 10.4591 49.125 10.7513 49.2117 11.0181L50.4856 14.939C50.6795 15.5355 49.9967 16.0315 49.4893 15.6629L46.154 13.2396C45.927 13.0747 45.6198 13.0747 45.3928 13.2396L42.0575 15.6628C41.5501 16.0315 40.8674 15.5355 41.0612 14.939L42.3352 11.0181C42.4218 10.7513 42.3269 10.4591 42.0999 10.2942L38.7646 7.87094C38.2572 7.50227 38.518 6.69966 39.1452 6.69966H43.2679C43.5484 6.69966 43.797 6.51905 43.8837 6.25227L45.1576 2.33139Z" fill="white"/>
<path d="M63.2867 2.33139C63.4805 1.73487 64.3244 1.73487 64.5182 2.33139L65.7922 6.25227C65.8789 6.51904 66.1275 6.69966 66.408 6.69966H70.5306C71.1578 6.69966 71.4186 7.50227 70.9112 7.87094L67.5759 10.2942C67.349 10.4591 67.254 10.7513 67.3407 11.0181L68.6147 14.939C68.8085 15.5355 68.1257 16.0315 67.6183 15.6629L64.283 13.2396C64.0561 13.0747 63.7488 13.0747 63.5219 13.2396L60.1866 15.6628C59.6791 16.0315 58.9964 15.5355 59.1902 14.939L60.4642 11.0181C60.5509 10.7513 60.4559 10.4591 60.229 10.2942L56.8937 7.87094C56.3862 7.50227 56.647 6.69966 57.2742 6.69966H61.3969C61.6774 6.69966 61.926 6.51905 62.0127 6.25227L63.2867 2.33139Z" fill="white"/>
<path d="M81.4158 2.33139C81.6096 1.73487 82.4535 1.73487 82.6474 2.33139L83.9213 6.25227C84.008 6.51904 84.2566 6.69966 84.5371 6.69966H88.6598C89.287 6.69966 89.5478 7.50227 89.0403 7.87094L85.705 10.2942C85.4781 10.4591 85.3832 10.7513 85.4698 11.0181L86.7438 14.939C86.9376 15.5355 86.2549 16.0315 85.7475 15.6629L82.4122 13.2396C82.1852 13.0747 81.8779 13.0747 81.651 13.2396L78.3157 15.6628C77.8083 16.0315 77.1255 15.5355 77.3194 14.939L78.5933 11.0181C78.68 10.7513 78.5851 10.4591 78.3581 10.2942L75.0228 7.87094C74.5154 7.50227 74.7762 6.69966 75.4034 6.69966H79.5261C79.8066 6.69966 80.0552 6.51905 80.1418 6.25227L81.4158 2.33139Z" fill="white"/>
</svg>
